<svg width="31" height="31" viewBox="0 0 31 31" fill="none" xmlns="http://www.w3.org/2000/svg">
<path d="M3.35302 1.51367L1.63348 10.1113H10.4304L15.5 5.0418L20.5695 10.1113H29.3664L27.6469 1.51367H3.35302ZM15.5 6.58308L10.882 11.2012H2.48241V29.4863H12.0488V24.2188C12.0488 23.1138 12.4827 22.216 13.1399 21.6318C13.7972 21.0475 14.6523 20.7676 15.5 20.7676C16.3476 20.7676 17.2028 21.0475 17.86 21.6318C18.5173 22.216 18.9512 23.1138 18.9512 24.2188V29.4863H28.5176V11.2012H20.118L15.5 6.58308ZM15.5 8.9168L18.9512 12.368V17.9824H12.0488V12.368L15.5 8.9168ZM15.5 10.4581L13.1387 12.8194V16.8926H17.8613V12.8195L15.5 10.4581ZM4.29882 12.0488H10.2324V17.9824H4.29882V12.0488ZM20.7676 12.0488H26.7012V17.9824H20.7676V12.0488ZM5.38866 13.1387V14.9551H9.14257V13.1387H5.38866ZM21.8574 13.1387V14.9551H25.6113V13.1387H21.8574ZM5.38866 16.0449V16.8926H9.14257V16.0449H5.38866ZM21.8574 16.0449V16.8926H25.6113V16.0449H21.8574ZM4.29882 21.7363H10.2324V27.6699H4.29882V21.7363ZM20.7676 21.7363H26.7012V27.6699H20.7676V21.7363ZM15.5 21.8574C14.8945 21.8574 14.2965 22.0618 13.864 22.4464C13.4313 22.8308 13.1387 23.3862 13.1387 24.2188V29.4863H17.8613V24.2188C17.8613 23.3862 17.5686 22.8308 17.136 22.4464C16.7034 22.0619 16.1055 21.8574 15.5 21.8574ZM5.38866 22.8262V26.5801H9.14257V22.8262H5.38866ZM21.8574 22.8262V26.5801H25.6113V22.8262H21.8574Z" fill="#00FF44"/>
</svg>
